# xmcd
#
# Track frame offsets: 
#        150
#        18556
#        33670
#        42445
#        80888
#        93538
#        106259
#        120451
#        144429
#        163952
#        181887
#        195905
#        208954
#        241044
#        267884
#
# Disc length: 3740 seconds
#
# Revision: 1
# Processed by: cddbd v1.5.2PL0 Copyright (c) Steve Scherf et al.
# Submitted via: ExactAudioCopyFreeDBPlugin 1.0
#
DISCID=d00e9a0f
DTITLE=Various Artist - The Best Of Perception and Today Records [CD
DTITLE=1)
DYEAR=2012
DGENRE=R&B
TTITLE0=Dizzy Gillespie - Matrix
TTITLE1=The Eight Minutes - I Can't Get No Higher
TTITLE2=Adam Wade and Johnny Pate - Brother
TTITLE3=J.J. Barns - You Owe It To Yourself
TTITLE4=Debbie Taylor - Too Sad To Tell
TTITLE5=Joe Thomas - Chitlins and Cuchifritos
TTITLE6=The Fatback Band - Njia (Nija) Walk
TTITLE7=Bartel - Naturally Good
TTITLE8=Madhouse - Get Some Of This
TTITLE9=Astrud Gilberto - Gingele
TTITLE10=The Albert - One Life
TTITLE11=Bobby Rydell - Honey Buns
TTITLE12=Black Ivory - You And I
TTITLE13=The Eight Minutes - Take My Love Don't Set Me Free
TTITLE14=Wanda Robinson - Instant Replay
EXTD=
EXTT0=
EXTT1=
EXTT2=
EXTT3=
EXTT4=
EXTT5=
EXTT6=
EXTT7=
EXTT8=
EXTT9=
EXTT10=
EXTT11=
EXTT12=
EXTT13=
EXTT14=
PLAYORDER=
